<?xml version="1.0" standalone="no"?>
<!DOCTYPE svg PUBLIC "-//W3C//DTD SVG 20010904//EN"
 "http://www.w3.org/TR/2001/REC-SVG-20010904/DTD/svg10.dtd">
<svg version="1.0" xmlns="http://www.w3.org/2000/svg"
 width="512.000000pt" height="512.000000pt" viewBox="0 0 512.000000 512.000000"
 preserveAspectRatio="xMidYMid meet">
<metadata>
Created by potrace 1.11, written by Peter Selinger 2001-2013
</metadata>
<g transform="translate(0.000000,512.000000) scale(0.100000,-0.100000)"
fill="#000000" stroke="none">
<path d="M235 4796 c-91 -29 -158 -85 -203 -171 l-27 -50 0 -885 c0 -848 1
-887 19 -935 38 -98 148 -185 253 -201 l43 -6 0 -380 c0 -242 4 -386 10 -399
12 -22 49 -25 72 -7 8 7 148 182 311 388 173 221 306 381 322 388 17 8 88 12
210 12 l185 0 0 -462 c0 -255 5 -494 10 -532 24 -164 140 -285 305 -315 40 -8
395 -11 1111 -11 797 0 1059 -3 1079 -12 16 -7 170 -193 376 -454 192 -244
358 -445 369 -449 13 -4 31 0 45 9 l25 16 0 444 0 444 43 7 c129 22 233 98
289 213 l33 67 3 980 c2 719 0 995 -8 1035 -25 118 -117 227 -228 272 l-57 23
-807 -3 -807 -4 -3 374 -3 373 -26 55 c-32 66 -86 123 -154 158 l-50 27 -1350
2 c-1069 1 -1358 -1 -1390 -11z m4326 -1595 c33 -41 21 -93 -28 -119 -16 -9
-338 -12 -1263 -12 l-1242 0 -29 29 c-31 32 -35 50 -17 84 25 49 -33 47 1301
44 l1259 -2 19 -24z m-21 -576 c53 -27 53 -103 0 -130 -25 -13 -180 -15 -1270
-15 l-1242 0 -29 29 c-16 16 -29 36 -29 45 0 27 22 64 44 74 14 7 428 11 1259
11 1088 1 1242 -1 1267 -14z m0 -590 c32 -17 46 -51 36 -90 -15 -58 46 -55
-1300 -55 -884 0 -1242 3 -1259 11 -25 11 -47 47 -47 75 0 9 13 29 29 45 l29
29 1242 0 c1090 0 1245 -2 1270 -15z"/>
</g>
</svg>
